<svg width="381" height="82" viewBox="0 0 381 82" fill="none" xmlns="http://www.w3.org/2000/svg">
<g opacity="0.2">
<path d="M8.19355 4.1C8.19355 6.36437 6.35936 8.2 4.09677 8.2C1.83419 8.2 0 6.36437 0 4.1C0 1.83563 1.83419 0 4.09677 0C6.35936 0 8.19355 1.83563 8.19355 4.1Z" fill="white"/>
<path d="M34.8226 4.1C34.8226 6.36437 32.9884 8.2 30.7258 8.2C28.4632 8.2 26.629 6.36437 26.629 4.1C26.629 1.83563 28.4632 0 30.7258 0C32.9884 0 34.8226 1.83563 34.8226 4.1Z" fill="white"/>
<path d="M61.4516 4.1C61.4516 6.36437 59.6174 8.2 57.3548 8.2C55.0923 8.2 53.2581 6.36437 53.2581 4.1C53.2581 1.83563 55.0923 0 57.3548 0C59.6174 0 61.4516 1.83563 61.4516 4.1Z" fill="white"/>
<path d="M88.0806 4.1C88.0806 6.36437 86.2465 8.2 83.9839 8.2C81.7213 8.2 79.8871 6.36437 79.8871 4.1C79.8871 1.83563 81.7213 0 83.9839 0C86.2465 0 88.0806 1.83563 88.0806 4.1Z" fill="white"/>
<path d="M114.71 4.1C114.71 6.36437 112.875 8.2 110.613 8.2C108.35 8.2 106.516 6.36437 106.516 4.1C106.516 1.83563 108.35 0 110.613 0C112.875 0 114.71 1.83563 114.71 4.1Z" fill="white"/>
<path d="M141.339 4.1C141.339 6.36437 139.505 8.2 137.242 8.2C134.979 8.2 133.145 6.36437 133.145 4.1C133.145 1.83563 134.979 0 137.242 0C139.505 0 141.339 1.83563 141.339 4.1Z" fill="white"/>
<path d="M167.968 4.1C167.968 6.36437 166.134 8.2 163.871 8.2C161.608 8.2 159.774 6.36437 159.774 4.1C159.774 1.83563 161.608 0 163.871 0C166.134 0 167.968 1.83563 167.968 4.1Z" fill="white"/>
<path d="M194.597 4.1C194.597 6.36437 192.763 8.2 190.5 8.2C188.237 8.2 186.403 6.36437 186.403 4.1C186.403 1.83563 188.237 0 190.5 0C192.763 0 194.597 1.83563 194.597 4.1Z" fill="white"/>
<path d="M221.226 4.1C221.226 6.36437 219.392 8.2 217.129 8.2C214.866 8.2 213.032 6.36437 213.032 4.1C213.032 1.83563 214.866 0 217.129 0C219.392 0 221.226 1.83563 221.226 4.1Z" fill="white"/>
<path d="M247.855 4.1C247.855 6.36437 246.021 8.2 243.758 8.2C241.495 8.2 239.661 6.36437 239.661 4.1C239.661 1.83563 241.495 0 243.758 0C246.021 0 247.855 1.83563 247.855 4.1Z" fill="white"/>
<path d="M274.484 4.1C274.484 6.36437 272.65 8.2 270.387 8.2C268.125 8.2 266.29 6.36437 266.29 4.1C266.29 1.83563 268.125 0 270.387 0C272.65 0 274.484 1.83563 274.484 4.1Z" fill="white"/>
<path d="M301.113 4.1C301.113 6.36437 299.279 8.2 297.016 8.2C294.754 8.2 292.919 6.36437 292.919 4.1C292.919 1.83563 294.754 0 297.016 0C299.279 0 301.113 1.83563 301.113 4.1Z" fill="white"/>
<path d="M327.742 4.1C327.742 6.36437 325.908 8.2 323.645 8.2C321.383 8.2 319.548 6.36437 319.548 4.1C319.548 1.83563 321.383 0 323.645 0C325.908 0 327.742 1.83563 327.742 4.1Z" fill="white"/>
<path d="M354.371 4.1C354.371 6.36437 352.537 8.2 350.274 8.2C348.012 8.2 346.177 6.36437 346.177 4.1C346.177 1.83563 348.012 0 350.274 0C352.537 0 354.371 1.83563 354.371 4.1Z" fill="white"/>
<path d="M381 4.1C381 6.36437 379.166 8.2 376.903 8.2C374.641 8.2 372.806 6.36437 372.806 4.1C372.806 1.83563 374.641 0 376.903 0C379.166 0 381 1.83563 381 4.1Z" fill="white"/>
<path d="M8.19355 22.55C8.19355 24.8144 6.35936 26.65 4.09677 26.65C1.83419 26.65 0 24.8144 0 22.55C0 20.2856 1.83419 18.45 4.09677 18.45C6.35936 18.45 8.19355 20.2856 8.19355 22.55Z" fill="white"/>
<path d="M34.8226 22.55C34.8226 24.8144 32.9884 26.65 30.7258 26.65C28.4632 26.65 26.629 24.8144 26.629 22.55C26.629 20.2856 28.4632 18.45 30.7258 18.45C32.9884 18.45 34.8226 20.2856 34.8226 22.55Z" fill="white"/>
<path d="M61.4516 22.55C61.4516 24.8144 59.6174 26.65 57.3548 26.65C55.0923 26.65 53.2581 24.8144 53.2581 22.55C53.2581 20.2856 55.0923 18.45 57.3548 18.45C59.6174 18.45 61.4516 20.2856 61.4516 22.55Z" fill="white"/>
<path d="M88.0806 22.55C88.0806 24.8144 86.2465 26.65 83.9839 26.65C81.7213 26.65 79.8871 24.8144 79.8871 22.55C79.8871 20.2856 81.7213 18.45 83.9839 18.45C86.2465 18.45 88.0806 20.2856 88.0806 22.55Z" fill="white"/>
<path d="M114.71 22.55C114.71 24.8144 112.875 26.65 110.613 26.65C108.35 26.65 106.516 24.8144 106.516 22.55C106.516 20.2856 108.35 18.45 110.613 18.45C112.875 18.45 114.71 20.2856 114.71 22.55Z" fill="white"/>
<path d="M141.339 22.55C141.339 24.8144 139.505 26.65 137.242 26.65C134.979 26.65 133.145 24.8144 133.145 22.55C133.145 20.2856 134.979 18.45 137.242 18.45C139.505 18.45 141.339 20.2856 141.339 22.55Z" fill="white"/>
<path d="M167.968 22.55C167.968 24.8144 166.134 26.65 163.871 26.65C161.608 26.65 159.774 24.8144 159.774 22.55C159.774 20.2856 161.608 18.45 163.871 18.45C166.134 18.45 167.968 20.2856 167.968 22.55Z" fill="white"/>
<path d="M194.597 22.55C194.597 24.8144 192.763 26.65 190.5 26.65C188.237 26.65 186.403 24.8144 186.403 22.55C186.403 20.2856 188.237 18.45 190.5 18.45C192.763 18.45 194.597 20.2856 194.597 22.55Z" fill="white"/>
<path d="M221.226 22.55C221.226 24.8144 219.392 26.65 217.129 26.65C214.866 26.65 213.032 24.8144 213.032 22.55C213.032 20.2856 214.866 18.45 217.129 18.45C219.392 18.45 221.226 20.2856 221.226 22.55Z" fill="white"/>
<path d="M247.855 22.55C247.855 24.8144 246.021 26.65 243.758 26.65C241.495 26.65 239.661 24.8144 239.661 22.55C239.661 20.2856 241.495 18.45 243.758 18.45C246.021 18.45 247.855 20.2856 247.855 22.55Z" fill="white"/>
<path d="M274.484 22.55C274.484 24.8144 272.65 26.65 270.387 26.65C268.125 26.65 266.29 24.8144 266.29 22.55C266.29 20.2856 268.125 18.45 270.387 18.45C272.65 18.45 274.484 20.2856 274.484 22.55Z" fill="white"/>
<path d="M301.113 22.55C301.113 24.8144 299.279 26.65 297.016 26.65C294.754 26.65 292.919 24.8144 292.919 22.55C292.919 20.2856 294.754 18.45 297.016 18.45C299.279 18.45 301.113 20.2856 301.113 22.55Z" fill="white"/>
<path d="M327.742 22.55C327.742 24.8144 325.908 26.65 323.645 26.65C321.383 26.65 319.548 24.8144 319.548 22.55C319.548 20.2856 321.383 18.45 323.645 18.45C325.908 18.45 327.742 20.2856 327.742 22.55Z" fill="white"/>
<path d="M354.371 22.55C354.371 24.8144 352.537 26.65 350.274 26.65C348.012 26.65 346.177 24.8144 346.177 22.55C346.177 20.2856 348.012 18.45 350.274 18.45C352.537 18.45 354.371 20.2856 354.371 22.55Z" fill="white"/>
<path d="M381 22.55C381 24.8144 379.166 26.65 376.903 26.65C374.641 26.65 372.806 24.8144 372.806 22.55C372.806 20.2856 374.641 18.45 376.903 18.45C379.166 18.45 381 20.2856 381 22.55Z" fill="white"/>
<path d="M8.19355 41C8.19355 43.2644 6.35936 45.1 4.09677 45.1C1.83419 45.1 0 43.2644 0 41C0 38.7356 1.83419 36.9 4.09677 36.9C6.35936 36.9 8.19355 38.7356 8.19355 41Z" fill="white"/>
<path d="M34.8226 41C34.8226 43.2644 32.9884 45.1 30.7258 45.1C28.4632 45.1 26.629 43.2644 26.629 41C26.629 38.7356 28.4632 36.9 30.7258 36.9C32.9884 36.9 34.8226 38.7356 34.8226 41Z" fill="white"/>
<path d="M61.4516 41C61.4516 43.2644 59.6174 45.1 57.3548 45.1C55.0923 45.1 53.2581 43.2644 53.2581 41C53.2581 38.7356 55.0923 36.9 57.3548 36.9C59.6174 36.9 61.4516 38.7356 61.4516 41Z" fill="white"/>
<path d="M88.0806 41C88.0806 43.2644 86.2465 45.1 83.9839 45.1C81.7213 45.1 79.8871 43.2644 79.8871 41C79.8871 38.7356 81.7213 36.9 83.9839 36.9C86.2465 36.9 88.0806 38.7356 88.0806 41Z" fill="white"/>
<path d="M114.71 41C114.71 43.2644 112.875 45.1 110.613 45.1C108.35 45.1 106.516 43.2644 106.516 41C106.516 38.7356 108.35 36.9 110.613 36.9C112.875 36.9 114.71 38.7356 114.71 41Z" fill="white"/>
<path d="M141.339 41C141.339 43.2644 139.505 45.1 137.242 45.1C134.979 45.1 133.145 43.2644 133.145 41C133.145 38.7356 134.979 36.9 137.242 36.9C139.505 36.9 141.339 38.7356 141.339 41Z" fill="white"/>
<path d="M167.968 41C167.968 43.2644 166.134 45.1 163.871 45.1C161.608 45.1 159.774 43.2644 159.774 41C159.774 38.7356 161.608 36.9 163.871 36.9C166.134 36.9 167.968 38.7356 167.968 41Z" fill="white"/>
<path d="M194.597 41C194.597 43.2644 192.763 45.1 190.5 45.1C188.237 45.1 186.403 43.2644 186.403 41C186.403 38.7356 188.237 36.9 190.5 36.9C192.763 36.9 194.597 38.7356 194.597 41Z" fill="white"/>
<path d="M221.226 41C221.226 43.2644 219.392 45.1 217.129 45.1C214.866 45.1 213.032 43.2644 213.032 41C213.032 38.7356 214.866 36.9 217.129 36.9C219.392 36.9 221.226 38.7356 221.226 41Z" fill="white"/>
<path d="M247.855 41C247.855 43.2644 246.021 45.1 243.758 45.1C241.495 45.1 239.661 43.2644 239.661 41C239.661 38.7356 241.495 36.9 243.758 36.9C246.021 36.9 247.855 38.7356 247.855 41Z" fill="white"/>
<path d="M274.484 41C274.484 43.2644 272.65 45.1 270.387 45.1C268.125 45.1 266.29 43.2644 266.29 41C266.29 38.7356 268.125 36.9 270.387 36.9C272.65 36.9 274.484 38.7356 274.484 41Z" fill="white"/>
<path d="M301.113 41C301.113 43.2644 299.279 45.1 297.016 45.1C294.754 45.1 292.919 43.2644 292.919 41C292.919 38.7356 294.754 36.9 297.016 36.9C299.279 36.9 301.113 38.7356 301.113 41Z" fill="white"/>
<path d="M327.742 41C327.742 43.2644 325.908 45.1 323.645 45.1C321.383 45.1 319.548 43.2644 319.548 41C319.548 38.7356 321.383 36.9 323.645 36.9C325.908 36.9 327.742 38.7356 327.742 41Z" fill="white"/>
<path d="M354.371 41C354.371 43.2644 352.537 45.1 350.274 45.1C348.012 45.1 346.177 43.2644 346.177 41C346.177 38.7356 348.012 36.9 350.274 36.9C352.537 36.9 354.371 38.7356 354.371 41Z" fill="white"/>
<path d="M381 41C381 43.2644 379.166 45.1 376.903 45.1C374.641 45.1 372.806 43.2644 372.806 41C372.806 38.7356 374.641 36.9 376.903 36.9C379.166 36.9 381 38.7356 381 41Z" fill="white"/>
<path d="M8.19355 77.9C8.19355 80.1644 6.35936 82 4.09677 82C1.83419 82 0 80.1644 0 77.9C0 75.6356 1.83419 73.8 4.09677 73.8C6.35936 73.8 8.19355 75.6356 8.19355 77.9Z" fill="white"/>
<path d="M34.8226 77.9C34.8226 80.1644 32.9884 82 30.7258 82C28.4632 82 26.629 80.1644 26.629 77.9C26.629 75.6356 28.4632 73.8 30.7258 73.8C32.9884 73.8 34.8226 75.6356 34.8226 77.9Z" fill="white"/>
<path d="M61.4516 77.9C61.4516 80.1644 59.6174 82 57.3548 82C55.0923 82 53.2581 80.1644 53.2581 77.9C53.2581 75.6356 55.0923 73.8 57.3548 73.8C59.6174 73.8 61.4516 75.6356 61.4516 77.9Z" fill="white"/>
<path d="M88.0806 77.9C88.0806 80.1644 86.2465 82 83.9839 82C81.7213 82 79.8871 80.1644 79.8871 77.9C79.8871 75.6356 81.7213 73.8 83.9839 73.8C86.2465 73.8 88.0806 75.6356 88.0806 77.9Z" fill="white"/>
<path d="M114.71 77.9C114.71 80.1644 112.875 82 110.613 82C108.35 82 106.516 80.1644 106.516 77.9C106.516 75.6356 108.35 73.8 110.613 73.8C112.875 73.8 114.71 75.6356 114.71 77.9Z" fill="white"/>
<path d="M141.339 77.9C141.339 80.1644 139.505 82 137.242 82C134.979 82 133.145 80.1644 133.145 77.9C133.145 75.6356 134.979 73.8 137.242 73.8C139.505 73.8 141.339 75.6356 141.339 77.9Z" fill="white"/>
<path d="M167.968 77.9C167.968 80.1644 166.134 82 163.871 82C161.608 82 159.774 80.1644 159.774 77.9C159.774 75.6356 161.608 73.8 163.871 73.8C166.134 73.8 167.968 75.6356 167.968 77.9Z" fill="white"/>
<path d="M194.597 77.9C194.597 80.1644 192.763 82 190.5 82C188.237 82 186.403 80.1644 186.403 77.9C186.403 75.6356 188.237 73.8 190.5 73.8C192.763 73.8 194.597 75.6356 194.597 77.9Z" fill="white"/>
<path d="M221.226 77.9C221.226 80.1644 219.392 82 217.129 82C214.866 82 213.032 80.1644 213.032 77.9C213.032 75.6356 214.866 73.8 217.129 73.8C219.392 73.8 221.226 75.6356 221.226 77.9Z" fill="white"/>
<path d="M247.855 77.9C247.855 80.1644 246.021 82 243.758 82C241.495 82 239.661 80.1644 239.661 77.9C239.661 75.6356 241.495 73.8 243.758 73.8C246.021 73.8 247.855 75.6356 247.855 77.9Z" fill="white"/>
<path d="M274.484 77.9C274.484 80.1644 272.65 82 270.387 82C268.125 82 266.29 80.1644 266.29 77.9C266.29 75.6356 268.125 73.8 270.387 73.8C272.65 73.8 274.484 75.6356 274.484 77.9Z" fill="white"/>
<path d="M301.113 77.9C301.113 80.1644 299.279 82 297.016 82C294.754 82 292.919 80.1644 292.919 77.9C292.919 75.6356 294.754 73.8 297.016 73.8C299.279 73.8 301.113 75.6356 301.113 77.9Z" fill="white"/>
<path d="M327.742 77.9C327.742 80.1644 325.908 82 323.645 82C321.383 82 319.548 80.1644 319.548 77.9C319.548 75.6356 321.383 73.8 323.645 73.8C325.908 73.8 327.742 75.6356 327.742 77.9Z" fill="white"/>
<path d="M354.371 77.9C354.371 80.1644 352.537 82 350.274 82C348.012 82 346.177 80.1644 346.177 77.9C346.177 75.6356 348.012 73.8 350.274 73.8C352.537 73.8 354.371 75.6356 354.371 77.9Z" fill="white"/>
<path d="M381 77.9C381 80.1644 379.166 82 376.903 82C374.641 82 372.806 80.1644 372.806 77.9C372.806 75.6356 374.641 73.8 376.903 73.8C379.166 73.8 381 75.6356 381 77.9Z" fill="white"/>
<path d="M8.19355 59.45C8.19355 61.7144 6.35936 63.55 4.09677 63.55C1.83419 63.55 0 61.7144 0 59.45C0 57.1856 1.83419 55.35 4.09677 55.35C6.35936 55.35 8.19355 57.1856 8.19355 59.45Z" fill="white"/>
<path d="M34.8226 59.45C34.8226 61.7144 32.9884 63.55 30.7258 63.55C28.4632 63.55 26.629 61.7144 26.629 59.45C26.629 57.1856 28.4632 55.35 30.7258 55.35C32.9884 55.35 34.8226 57.1856 34.8226 59.45Z" fill="white"/>
<path d="M61.4516 59.45C61.4516 61.7144 59.6174 63.55 57.3548 63.55C55.0923 63.55 53.2581 61.7144 53.2581 59.45C53.2581 57.1856 55.0923 55.35 57.3548 55.35C59.6174 55.35 61.4516 57.1856 61.4516 59.45Z" fill="white"/>
<path d="M88.0806 59.45C88.0806 61.7144 86.2465 63.55 83.9839 63.55C81.7213 63.55 79.8871 61.7144 79.8871 59.45C79.8871 57.1856 81.7213 55.35 83.9839 55.35C86.2465 55.35 88.0806 57.1856 88.0806 59.45Z" fill="white"/>
<path d="M114.71 59.45C114.71 61.7144 112.875 63.55 110.613 63.55C108.35 63.55 106.516 61.7144 106.516 59.45C106.516 57.1856 108.35 55.35 110.613 55.35C112.875 55.35 114.71 57.1856 114.71 59.45Z" fill="white"/>
<path d="M141.339 59.45C141.339 61.7144 139.505 63.55 137.242 63.55C134.979 63.55 133.145 61.7144 133.145 59.45C133.145 57.1856 134.979 55.35 137.242 55.35C139.505 55.35 141.339 57.1856 141.339 59.45Z" fill="white"/>
<path d="M167.968 59.45C167.968 61.7144 166.134 63.55 163.871 63.55C161.608 63.55 159.774 61.7144 159.774 59.45C159.774 57.1856 161.608 55.35 163.871 55.35C166.134 55.35 167.968 57.1856 167.968 59.45Z" fill="white"/>
<path d="M194.597 59.45C194.597 61.7144 192.763 63.55 190.5 63.55C188.237 63.55 186.403 61.7144 186.403 59.45C186.403 57.1856 188.237 55.35 190.5 55.35C192.763 55.35 194.597 57.1856 194.597 59.45Z" fill="white"/>
<path d="M221.226 59.45C221.226 61.7144 219.392 63.55 217.129 63.55C214.866 63.55 213.032 61.7144 213.032 59.45C213.032 57.1856 214.866 55.35 217.129 55.35C219.392 55.35 221.226 57.1856 221.226 59.45Z" fill="white"/>
<path d="M247.855 59.45C247.855 61.7144 246.021 63.55 243.758 63.55C241.495 63.55 239.661 61.7144 239.661 59.45C239.661 57.1856 241.495 55.35 243.758 55.35C246.021 55.35 247.855 57.1856 247.855 59.45Z" fill="white"/>
<path d="M274.484 59.45C274.484 61.7144 272.65 63.55 270.387 63.55C268.125 63.55 266.29 61.7144 266.29 59.45C266.29 57.1856 268.125 55.35 270.387 55.35C272.65 55.35 274.484 57.1856 274.484 59.45Z" fill="white"/>
<path d="M301.113 59.45C301.113 61.7144 299.279 63.55 297.016 63.55C294.754 63.55 292.919 61.7144 292.919 59.45C292.919 57.1856 294.754 55.35 297.016 55.35C299.279 55.35 301.113 57.1856 301.113 59.45Z" fill="white"/>
<path d="M327.742 59.45C327.742 61.7144 325.908 63.55 323.645 63.55C321.383 63.55 319.548 61.7144 319.548 59.45C319.548 57.1856 321.383 55.35 323.645 55.35C325.908 55.35 327.742 57.1856 327.742 59.45Z" fill="white"/>
<path d="M354.371 59.45C354.371 61.7144 352.537 63.55 350.274 63.55C348.012 63.55 346.177 61.7144 346.177 59.45C346.177 57.1856 348.012 55.35 350.274 55.35C352.537 55.35 354.371 57.1856 354.371 59.45Z" fill="white"/>
<path d="M381 59.45C381 61.7144 379.166 63.55 376.903 63.55C374.641 63.55 372.806 61.7144 372.806 59.45C372.806 57.1856 374.641 55.35 376.903 55.35C379.166 55.35 381 57.1856 381 59.45Z" fill="white"/>
</g>
</svg>
